<?xml version="1.0" encoding="utf-8"?>
<!-- Generator: Adobe Illustrator 13.0.2, SVG Export Plug-In . SVG Version: 6.00 Build 14948)  -->
<!DOCTYPE svg PUBLIC "-//W3C//DTD SVG 1.1//EN" "http://www.w3.org/Graphics/SVG/1.1/DTD/svg11.dtd">
<svg version="1.1" id="Layer_1" xmlns="http://www.w3.org/2000/svg" xmlns:xlink="http://www.w3.org/1999/xlink" x="0px" y="0px"
	 width="355.472px" height="215.28px" viewBox="0 0 355.472 215.28" enable-background="new 0 0 355.472 215.28"
	 xml:space="preserve">
<path stroke="#000000" d="M274.291,28.25l10.193-27.185l16.992,24.272l31.551,4.368l15.537-23.3l3.881,18.446
	c0,0,12.059,70.182-16.504,84.466c-5.826,2.912-11.596,5.061-19.418,5.34c-13.592,0.485-16.775-1.569-24.271-7.281
	c-7.215-5.496,0.971-1.941,0.971-1.941s7.768,27.183,17.477,45.63s21.359,38.351,21.359,38.351s14.562,11.65,3.396,16.991
	c-3.186,1.523-14.771,4.5-21.359-4.855c-7.027-9.98-18.289-31.571-19.416-34.951c-2.428-7.282-12.621-37.378-22.814-35.923
	c-11.469,1.641-3.582,29.426-3.399,33.01c0.299,5.873-0.122,0.606,0.485,2.427c0.655,1.965,6.312,23.301,16.021,32.524
	c5.076,4.822,11.165,15.049-2.429,16.019c-1.269,0.091-12.325,1.062-16.505-4.369c-9.408-12.223-19.963-41.658-21.844-51.457
	c-1.693-8.818-5.826-20.873-8.253-26.697c-5.2-12.482-9.118-16.443-21.845-17.476c-17.963-1.456-25.729-3.884-26.214,7.281
	c-0.711,16.361-6.535,22.104-5.824,32.038c0.484,6.797-1.211,17.283,12.619,30.584c10.898,10.479,16.021,25.242,3.885,22.814
	c-12.135-2.426-19.418-2.426-23.3-12.135c-3.885-9.709-19.904-29.127-22.332-46.117s-10.194-17.477-10.194-17.477
	s-24.271,33.98-34.95,33.496c-10.68-0.486-15.535,31.066-8.739,34.465s6.311,8.254-2.427,12.137
	c-8.738,3.885-23.787-5.824-21.36-20.873s3.398-42.721,12.622-52.428c9.223-9.709-9.223-7.768-16.019-25.728
	c-2.689-7.107-4.854,1.455-8.253-32.525c-3.339-33.385-13.234-45.532-18.447-50c-3.398-2.913-14.563-7.767-16.02-7.767
	c-1.027,0-28.083-5.185-28.641-10.194C0.271,10.13,12.501,7.518,18.95,7.375c21.845-0.485,46.116,12.622,47.573,16.02
	s16.505,25.243,16.505,27.185s5.339,5.34,5.339,5.34s33.918-31.076,43.69-33.98c17.961-5.339,25.243-11.165,36.407-11.65
	c11.166-0.485,46.07,4.148,48.059,4.369c4.369,0.485,28.156,4.854,28.156,4.854l16.99,5.34"/>
<ellipse fill="#FFE81F" stroke="#000000" cx="307.058" cy="59.559" rx="9.466" ry="17.233"/>
<ellipse fill="#FFE81F" stroke="#000000" cx="334.483" cy="64.656" rx="5.583" ry="9.952"/>
</svg>
