<?xml version="1.0" encoding="utf-8"?>
<!-- Generator: Adobe Illustrator 13.0.2, SVG Export Plug-In . SVG Version: 6.00 Build 14948)  -->
<!DOCTYPE svg PUBLIC "-//W3C//DTD SVG 1.1//EN" "http://www.w3.org/Graphics/SVG/1.1/DTD/svg11.dtd">
<svg version="1.1" id="Layer_1" xmlns="http://www.w3.org/2000/svg" xmlns:xlink="http://www.w3.org/1999/xlink" x="0px" y="0px"
	 width="146.145px" height="201.527px" viewBox="0 0 146.145 201.527" enable-background="new 0 0 146.145 201.527"
	 xml:space="preserve">
<path opacity="0.4" fill="#FFFFFF" stroke="#000000" d="M68.461,0.621c0,0-67.961-0.971-67.961,41.748s5.339,151.942,5.339,151.942
	l24.271-21.846l6.312,22.816l18.447-21.845l17.961,22.814l16.505-21.358l10.193,23.787l15.534-19.903l4.37-6.312l10.194,27.186
	c0,0,16.019-88.835,16.019-127.186c0-38.35-23.301-55.34-22.813-55.824c0.483-0.485-16.99-14.563-35.438-15.534
	C68.946,0.135,68.461,0.621,68.461,0.621z"/>
<ellipse opacity="0.7" stroke="#000000" cx="56.568" cy="63.728" rx="18.204" ry="30.097"/>
<ellipse opacity="0.7" stroke="#000000" cx="98.801" cy="70.281" rx="8.981" ry="16.748"/>
</svg>
