<?xml version="1.0" encoding="utf-8"?>
<!-- Generator: Adobe Illustrator 13.0.2, SVG Export Plug-In . SVG Version: 6.00 Build 14948)  -->
<!DOCTYPE svg PUBLIC "-//W3C//DTD SVG 1.1//EN" "http://www.w3.org/Graphics/SVG/1.1/DTD/svg11.dtd">
<svg version="1.1" id="Layer_1" xmlns="http://www.w3.org/2000/svg" xmlns:xlink="http://www.w3.org/1999/xlink" x="0px" y="0px"
	 width="327.667px" height="327.631px" viewBox="0 0 327.667 327.631" enable-background="new 0 0 327.667 327.631"
	 xml:space="preserve">
<path fill="#FFFFFF" stroke="#000000" d="M158.5,105.132"/>
<ellipse fill="#F7931E" stroke="#000000" cx="163.834" cy="197.131" rx="163.333" ry="130"/>
<path fill="#FFFFFF" stroke="#000000" d="M85.833,235.799"/>
<path fill="#754C24" stroke="#000000" d="M155.167,67.798l2.667-12c0,0,1.333-21.333-8.667-29.333
	c-9.039-7.231-16.764,4.049-1.333-6.667c24-16.667,30.667-19.333,30.667-19.333s-11.334,12-10,25.333
	c1.332,13.333,2,33.333,2,33.333l1.332,9.333"/>
<path fill="#FFFF00" stroke="#000000" d="M111.167,117.132l-29.333,50l59.333,0.667
	C141.167,167.798,111.833,117.132,111.167,117.132"/>
<path fill="#FFFF00" stroke="#000000" d="M217.5,119.798l-29.332,50l59.332,0.667C247.5,170.465,218.167,119.798,217.5,119.798"/>
<path fill="#FFFF00" stroke="#000000" d="M163.639,181.921l-18.262,38.364l36.938,0.512
	C182.315,220.797,164.054,181.921,163.639,181.921"/>
<path fill="#FFFF00" stroke="#000000" d="M73.167,235.132l61.333,1.332v14l16.667,0.667l0.667-13.333h19.333l-1.334,13.333
	l23.334-1.333l-1.332-13.334l64-1.333c0,0-4.666,15.334-20,24.667s-32.002,12.667-43.334,14
	c-11.334,1.333-18.002,0.666-18.002,0.666l0.668-12.666l-24-0.667v13.333c0,0-25.849-2.604-36-6.665
	C108.5,265.132,70.5,253.799,73.167,235.132z"/>
</svg>
