<?xml version="1.0" encoding="utf-8"?>
<!-- Generator: Adobe Illustrator 13.0.2, SVG Export Plug-In . SVG Version: 6.00 Build 14948)  -->
<!DOCTYPE svg PUBLIC "-//W3C//DTD SVG 1.1//EN" "http://www.w3.org/Graphics/SVG/1.1/DTD/svg11.dtd">
<svg version="1.1" id="Layer_1" xmlns="http://www.w3.org/2000/svg" xmlns:xlink="http://www.w3.org/1999/xlink" x="0px" y="0px"
	 width="192.866px" height="254.025px" viewBox="0 0 192.866 254.025" enable-background="new 0 0 192.866 254.025"
	 xml:space="preserve">
<path fill="#FFFFFF" stroke="#000000" stroke-width="5" d="M190.366,106.18c0,41.899-14.684,74.731-47.088,91.083
	c-0.811,0.408-5.422,50.694-6.313,50.866c-15.05,2.909-28.776,3.396-41.746,3.396c-11.44,0-28.696-0.228-38.835-4.36
	c-1.326-0.54-6.471-50.753-7.767-51.354C14.856,180.092,2.5,149.163,2.5,106.18C2.5,48.919,44.555,2.5,96.432,2.5
	C148.311,2.5,190.366,48.919,190.366,106.18z"/>
<line fill="none" stroke="#000000" stroke-width="5" x1="63.664" y1="215.605" x2="131.139" y2="215.605"/>
<line fill="none" stroke="#000000" stroke-width="5" x1="79.683" y1="198.131" x2="79.683" y2="233.567"/>
<line fill="none" stroke="#000000" stroke-width="5" x1="116.198" y1="198.801" x2="116.198" y2="234.236"/>
<line fill="none" stroke="#000000" stroke-width="5" x1="98.236" y1="198.314" x2="98.236" y2="233.752"/>
<ellipse stroke="#000000" stroke-width="5" cx="61.964" cy="141.091" rx="28.398" ry="30.34"/>
<ellipse stroke="#000000" stroke-width="5" cx="132.11" cy="145.217" rx="19.418" ry="21.359"/>
<polyline stroke="#000000" points="101.528,168.033 93.761,181.625 106.868,182.11 "/>
</svg>
